<?xml version="1.0" encoding="UTF-8"?><svg id="Layer_1" xmlns="http://www.w3.org/2000/svg" width="397" height="116" viewBox="0 0 397 116"><defs><style>.cls-1{fill:none;}.cls-2{fill:#eb5454;}</style></defs><path d="m128.44,96v-56h12.16l17.84,35.52,17.6-35.52h12.16v56h-10.24v-38.64l-15.6,30.64h-8.08l-15.6-30.64v38.64h-10.24Z"/><path d="m208.52,96.96c-3.41,0-6.21-.55-8.4-1.64-2.19-1.09-3.81-2.55-4.88-4.36-1.07-1.81-1.6-3.81-1.6-6,0-3.68,1.44-6.67,4.32-8.96,2.88-2.29,7.2-3.44,12.96-3.44h10.08v-.96c0-2.72-.77-4.72-2.32-6-1.55-1.28-3.47-1.92-5.76-1.92-2.08,0-3.89.49-5.44,1.48-1.55.99-2.51,2.44-2.88,4.36h-10c.27-2.88,1.24-5.39,2.92-7.52,1.68-2.13,3.85-3.77,6.52-4.92,2.67-1.15,5.65-1.72,8.96-1.72,5.65,0,10.11,1.41,13.36,4.24,3.25,2.83,4.88,6.83,4.88,12v24.4h-8.72l-.96-6.4c-1.17,2.13-2.81,3.89-4.92,5.28-2.11,1.39-4.81,2.08-8.12,2.08Zm2.32-8c2.93,0,5.21-.96,6.84-2.88,1.63-1.92,2.65-4.29,3.08-7.12h-8.72c-2.72,0-4.67.49-5.84,1.48-1.17.99-1.76,2.2-1.76,3.64,0,1.55.59,2.75,1.76,3.6,1.17.85,2.72,1.28,4.64,1.28Z"/><path d="m242.52,50.16c-1.87,0-3.4-.56-4.6-1.68s-1.8-2.53-1.8-4.24.6-3.11,1.8-4.2c1.2-1.09,2.73-1.64,4.6-1.64s3.4.55,4.6,1.64c1.2,1.09,1.8,2.49,1.8,4.2s-.6,3.12-1.8,4.24c-1.2,1.12-2.73,1.68-4.6,1.68Zm-5.12,45.84v-39.68h10.24v39.68h-10.24Z"/><path d="m254.36,96v-57.6h10.24v57.6h-10.24Z"/><path d="m287.88,84.16c-1.92,0-3.71-.21-5.36-.64l-2.96,2.96c.91.48,2.13.88,3.68,1.2,1.55.32,4.05.64,7.52.96,5.28.48,9.12,1.73,11.52,3.76,2.4,2.03,3.6,4.83,3.6,8.4,0,2.35-.64,4.57-1.92,6.68-1.28,2.11-3.25,3.81-5.92,5.12-2.67,1.31-6.08,1.96-10.24,1.96-5.65,0-10.21-1.05-13.68-3.16-3.47-2.11-5.2-5.27-5.2-9.48,0-3.57,1.73-6.67,5.2-9.28-1.07-.48-1.99-.99-2.76-1.52-.77-.53-1.45-1.09-2.04-1.68v-1.84l6.96-7.36c-3.09-2.72-4.64-6.21-4.64-10.48,0-2.67.65-5.09,1.96-7.28,1.31-2.19,3.16-3.92,5.56-5.2,2.4-1.28,5.31-1.92,8.72-1.92,2.24,0,4.32.32,6.24.96h15.04v6.24l-6.8.48c1.07,2.03,1.6,4.27,1.6,6.72,0,2.67-.64,5.09-1.92,7.28-1.28,2.19-3.13,3.92-5.56,5.2-2.43,1.28-5.29,1.92-8.6,1.92Zm-9.6,16.72c0,1.97.92,3.45,2.76,4.44,1.84.99,4.09,1.48,6.76,1.48s4.64-.52,6.24-1.56c1.6-1.04,2.4-2.44,2.4-4.2,0-1.44-.52-2.64-1.56-3.6s-3.11-1.55-6.2-1.76c-2.19-.16-4.21-.4-6.08-.72-1.55.85-2.65,1.79-3.32,2.8-.67,1.01-1,2.05-1,3.12Zm9.6-24.56c2.08,0,3.8-.56,5.16-1.68,1.36-1.12,2.04-2.72,2.04-4.8s-.68-3.68-2.04-4.8c-1.36-1.12-3.08-1.68-5.16-1.68-2.19,0-3.95.56-5.28,1.68s-2,2.72-2,4.8.67,3.68,2,4.8,3.09,1.68,5.28,1.68Z"/><path d="m327.48,96.96c-4.96,0-8.79-1.55-11.48-4.64-2.69-3.09-4.04-7.63-4.04-13.6v-22.4h10.16v21.44c0,3.41.69,6.03,2.08,7.84,1.39,1.81,3.57,2.72,6.56,2.72,2.83,0,5.16-1.01,7-3.04,1.84-2.03,2.76-4.85,2.76-8.48v-20.48h10.24v39.68h-9.04l-.8-6.72c-1.23,2.35-3,4.21-5.32,5.6-2.32,1.39-5.03,2.08-8.12,2.08Z"/><path d="m357.24,96v-39.68h9.04l.8,6.72c1.23-2.35,3-4.21,5.32-5.6,2.32-1.39,5.05-2.08,8.2-2.08,4.91,0,8.72,1.55,11.44,4.64,2.72,3.09,4.08,7.63,4.08,13.6v22.4h-10.24v-21.44c0-3.41-.69-6.03-2.08-7.84-1.39-1.81-3.55-2.72-6.48-2.72s-5.24,1.01-7.08,3.04c-1.84,2.03-2.76,4.85-2.76,8.48v20.48h-10.24Z"/><path d="m135.6,28.14c-1.44,0-2.71-.25-3.81-.74s-1.97-1.2-2.6-2.13-.96-2.05-.98-3.37h3.78c.04.92.37,1.68.99,2.31s1.49.94,2.59.94c.95,0,1.71-.23,2.27-.69.56-.46.84-1.07.84-1.83s-.25-1.43-.74-1.88c-.49-.45-1.15-.81-1.97-1.09s-1.7-.58-2.63-.9c-1.51-.52-2.67-1.19-3.46-2.02-.79-.82-1.19-1.91-1.19-3.28-.02-1.16.26-2.15.83-2.98.57-.83,1.35-1.47,2.34-1.93s2.13-.69,3.42-.69,2.46.23,3.46.7c1,.47,1.78,1.12,2.35,1.96.57.84.87,1.84.91,3h-3.84c-.02-.69-.28-1.3-.8-1.83s-1.23-.8-2.14-.8c-.78-.02-1.44.17-1.97.57-.53.4-.8.98-.8,1.75,0,.65.21,1.17.62,1.55.41.38.97.71,1.68.97.71.26,1.52.54,2.44.84.97.34,1.86.73,2.66,1.18.8.45,1.45,1.04,1.93,1.78.49.74.73,1.68.73,2.84,0,1.03-.26,1.98-.78,2.86-.52.88-1.3,1.58-2.32,2.11-1.03.53-2.29.8-3.78.8Z"/><path d="m151.22,27.8V8.2h3.58v19.6h-3.58Z"/><path d="m164.21,27.8V8.2h3.58l9.21,13.8v-13.8h3.58v19.6h-3.58l-9.21-13.78v13.78h-3.58Z"/><path d="m198.88,28.14c-1.98,0-3.68-.42-5.1-1.27-1.42-.85-2.51-2.03-3.28-3.56-.77-1.52-1.15-3.28-1.15-5.28s.38-3.76,1.15-5.29c.76-1.53,1.86-2.72,3.28-3.58,1.42-.86,3.12-1.29,5.1-1.29,2.35,0,4.28.58,5.78,1.75,1.5,1.17,2.44,2.8,2.81,4.91h-3.95c-.24-1.06-.76-1.9-1.55-2.51-.79-.61-1.84-.91-3.15-.91-1.81,0-3.23.62-4.26,1.85-1.03,1.23-1.54,2.92-1.54,5.07s.51,3.83,1.54,5.05,2.45,1.83,4.26,1.83c1.31,0,2.36-.29,3.15-.85.79-.57,1.31-1.36,1.55-2.37h3.95c-.37,2.02-1.31,3.59-2.81,4.73-1.5,1.14-3.43,1.71-5.78,1.71Z"/><path d="m216.24,27.8V8.2h3.58v8.15h8.79v-8.15h3.58v19.6h-3.58v-8.54h-8.79v8.54h-3.58Z"/><circle class="cls-2" cx="52" cy="52" r="6.93"/><path class="cls-2" d="m84.93,57.2c-2.87,0-5.2-2.33-5.2-5.2,0-15.32-12.42-27.73-27.73-27.73s-27.73,12.42-27.73,27.73,12.42,27.73,27.73,27.73c10.58,0,19.78-5.92,24.45-14.64,6.04,3.92,14.21,3.23,19.51-2.07,3.05-3.05,4.57-7.04,4.57-11.03,0-26.8-21.73-48.53-48.53-48.53S3.47,25.2,3.47,52s21.73,48.53,48.53,48.53c13.4,0,25.54-5.43,34.32-14.22l-7.35-7.35c-6.9,6.9-16.43,11.17-26.96,11.17-21.06,0-38.13-17.07-38.13-38.13S30.94,13.87,52,13.87s38.13,17.07,38.13,38.13c0,2.87-2.33,5.2-5.2,5.2Zm-32.93,12.13c-9.57,0-17.33-7.76-17.33-17.33s7.76-17.33,17.33-17.33,17.33,7.76,17.33,17.33-7.76,17.33-17.33,17.33Z"/><rect class="cls-1" width="104" height="104"/></svg>