<?xml version="1.0" encoding="UTF-8"?>
<svg enable-background="new 0 0 600 195.6" version="1.1" viewBox="0 0 600 195.6" xml:space="preserve" xmlns="http://www.w3.org/2000/svg">
<style type="text/css">
	.st0{fill-rule:evenodd;clip-rule:evenodd;fill:#C02729;}
	.st1{fill-rule:evenodd;clip-rule:evenodd;fill:#66676B;}
	.st2{fill:#C02729;}
</style>
		<path class="st0" d="m454.3 74.6h-15.6v7.8c-5.3-6.2-13.1-9.4-21.4-9.4-18.5 0-32 15.2-32 36.5 0 20.5 13.6 35.3 31.6 35.3 8.6 0 15.2-2.9 21.4-9.9v9.4c0 14.4-5.7 21.4-17.2 21.4-6.2 0-12.3-2.9-15.2-7.8-1.6-2.9-2.1-5.3-2.5-11.1h-15.2c0 20.5 12.7 33.3 32.8 33.3 11.5 0 21.8-4.5 27.5-13.1 4.5-6.6 5.7-12.3 5.7-25.9v-66.5zm-34.1 11.9c11.5 0 18.9 9 18.9 21.8 0 13.1-7.8 22.2-18.9 22.2-11.5 0-18.9-8.6-18.9-21.8s7.4-22.2 18.9-22.2z"/>
		<path class="st1" d="m151.2 74.6v68.2h15.6v-34.9c0-14.4 3.7-20.5 12.7-20.5 7 0 10.3 5.7 10.3 18.1v37.8h15.6v-34.9c0-14.4 3.7-20.5 12.7-20.5 7.4 0 10.3 4.9 10.3 18.1v37.8h15.6v-43.1c0-18.5-7.8-27.9-23-27.9-8.2 0-15.2 3.7-20.1 9.9-4.1-6.6-10.7-9.9-18.1-9.9-6.6 0-10.3 1.6-16 8.2v-6.2c0-0.2-15.6-0.2-15.6-0.2z"/>
		<path class="st1" d="m302.7 74.6v7.8c-7-7-12.7-9.9-21.4-9.9-18.5 0-32 15.2-32 35.3 0 21.4 13.6 36.5 32.4 36.5 8.2 0 13.6-2.5 20.9-9v7h15.6v-67.7h-15.5zm-18.4 11.9c11.5 0 19.3 9 19.3 21.8 0 13.1-7.8 22.2-19.3 22.2-11.1 0-18.9-9-18.9-22.2 0-12.3 8.2-21.8 18.9-21.8z"/>
		<path class="st1" d="m346.7 74.6h-15.6v68.2h15.6v-68.2zm-7.8-38.2c-5.7 0-10.3 4.5-10.3 10.3s4.5 10.3 10.3 10.3c5.7 0 10.3-4.5 10.3-10.3s-4.6-10.3-10.3-10.3z"/>
		<rect class="st1" x="361.1" y="19.2" width="15.6" height="123.2"/>
		<path class="st0" d="m479.3 74.6h-15.6v39.4c0 10.7 2.1 16.4 7 22.2 5.3 5.7 13.1 8.6 21.8 8.6 9 0 16.4-2.9 22.2-8.6 5.3-5.7 7-11.5 7-22.2v-39.4h-15.7v39c0 11.5-4.1 16.8-13.6 16.8-9 0-13.1-5.3-13.1-16.8v-39z"/>
		<path class="st0" d="m532.3 74.6v68.2h15.6v-32.8c0-16.8 3.7-23 14.4-23 9.9 0 12.7 4.5 12.7 17.7v38.2h15.6v-41.9c0-18.9-7.8-28.3-24.6-28.3-7.4 0-12.3 2.1-18.5 8.2v-6.2h-15.2z"/>
	<path class="st2" d="m71.2 79.9c-13.1 0-24.2 10.7-24.2 24.2s10.7 24.2 24.2 24.2c13.1 0 24.2-10.7 24.2-24.2s-11.1-24.2-24.2-24.2zm-37.8 23.9c0-20.5 16.8-37.4 37.4-37.4s37.4 16.8 37.4 37.4c0 1.2 0 2.9-0.4 4.1-0.4 3.7 2.5 6.6 6.2 6.6 6.2 0 7-7.8 7-10.7 0-27.5-22.6-50.1-50.1-50.1s-50.1 22.6-50.1 50.1 22.6 50.1 50.1 50.1c14.8 0 27.9-6.2 37-16.4l10.3 8.6c-11.1 13.1-28.3 21.4-46.8 21.4-35.3 0-63.6-28.3-63.6-63.6 0-34.9 28.3-63.6 63.6-63.6 34.9 0 63.2 28.7 63.2 63.6 0 14-6.6 25.5-20.1 25.5-5.7 0-9.4-2.9-11.5-5.7-6.6 10.7-18.5 17.7-32 17.7-20.8-0.3-37.6-16.7-37.6-37.6zm37.8-11.1c6.2 0 11.1 4.9 11.1 11.1s-4.9 11.1-11.1 11.1-11.1-4.9-11.1-11.1 4.9-11.1 11.1-11.1z"/>
</svg>
