<?xml version="1.0" encoding="utf-8"?>
<!-- Generator: Adobe Illustrator 23.0.1, SVG Export Plug-In . SVG Version: 6.00 Build 0)  -->
<svg version="1.1" id="Layer_1" xmlns="http://www.w3.org/2000/svg" xmlns:xlink="http://www.w3.org/1999/xlink" x="0px" y="0px"
	 viewBox="0 0 600 195.6" style="enable-background:new 0 0 600 195.6;" xml:space="preserve">
<style type="text/css">
	.st0{fill-rule:evenodd;clip-rule:evenodd;fill:#C02729;}
	.st1{fill-rule:evenodd;clip-rule:evenodd;fill:#66676B;}
	.st2{fill:#C02729;}
</style>
<g>
	<g>
		<path class="st0" d="M454.3,74.6h-15.6v7.8c-5.3-6.2-13.1-9.4-21.4-9.4c-18.5,0-32,15.2-32,36.5c0,20.5,13.6,35.3,31.6,35.3
			c8.6,0,15.2-2.9,21.4-9.9v9.4c0,14.4-5.7,21.4-17.2,21.4c-6.2,0-12.3-2.9-15.2-7.8c-1.6-2.9-2.1-5.3-2.5-11.1h-15.2
			c0,20.5,12.7,33.3,32.8,33.3c11.5,0,21.8-4.5,27.5-13.1c4.5-6.6,5.7-12.3,5.7-25.9V74.6z M420.2,86.5c11.5,0,18.9,9,18.9,21.8
			c0,13.1-7.8,22.2-18.9,22.2c-11.5,0-18.9-8.6-18.9-21.8S408.7,86.5,420.2,86.5z"/>
		<path class="st1" d="M151.2,74.6v68.2h15.6v-34.9c0-14.4,3.7-20.5,12.7-20.5c7,0,10.3,5.7,10.3,18.1v37.8h15.6v-34.9
			c0-14.4,3.7-20.5,12.7-20.5c7.4,0,10.3,4.9,10.3,18.1v37.8H244v-43.1c0-18.5-7.8-27.9-23-27.9c-8.2,0-15.2,3.7-20.1,9.9
			c-4.1-6.6-10.7-9.9-18.1-9.9c-6.6,0-10.3,1.6-16,8.2v-6.2C166.8,74.6,151.2,74.6,151.2,74.6z"/>
		<path class="st1" d="M302.7,74.6v7.8c-7-7-12.7-9.9-21.4-9.9c-18.5,0-32,15.2-32,35.3c0,21.4,13.6,36.5,32.4,36.5
			c8.2,0,13.6-2.5,20.9-9v7h15.6V74.6H302.7z M284.3,86.5c11.5,0,19.3,9,19.3,21.8c0,13.1-7.8,22.2-19.3,22.2
			c-11.1,0-18.9-9-18.9-22.2C265.4,96,273.6,86.5,284.3,86.5z"/>
		<path class="st1" d="M346.7,74.6h-15.6v68.2h15.6V74.6z M338.9,36.4c-5.7,0-10.3,4.5-10.3,10.3S333.1,57,338.9,57
			c5.7,0,10.3-4.5,10.3-10.3S344.6,36.4,338.9,36.4z"/>
		<rect x="361.1" y="19.2" class="st1" width="15.6" height="123.2"/>
		<path class="st0" d="M479.3,74.6h-15.6V114c0,10.7,2.1,16.4,7,22.2c5.3,5.7,13.1,8.6,21.8,8.6c9,0,16.4-2.9,22.2-8.6
			c5.3-5.7,7-11.5,7-22.2V74.6H506v39c0,11.5-4.1,16.8-13.6,16.8c-9,0-13.1-5.3-13.1-16.8C479.3,113.6,479.3,74.6,479.3,74.6z"/>
		<path class="st0" d="M532.3,74.6v68.2h15.6v-32.8c0-16.8,3.7-23,14.4-23c9.9,0,12.7,4.5,12.7,17.7v38.2h15.6v-41.9
			c0-18.9-7.8-28.3-24.6-28.3c-7.4,0-12.3,2.1-18.5,8.2v-6.2H532.3z"/>
	</g>
	<path class="st2" d="M71.2,79.9c-13.1,0-24.2,10.7-24.2,24.2s10.7,24.2,24.2,24.2c13.1,0,24.2-10.7,24.2-24.2S84.3,79.9,71.2,79.9z
		 M33.4,103.8c0-20.5,16.8-37.4,37.4-37.4s37.4,16.8,37.4,37.4c0,1.2,0,2.9-0.4,4.1c-0.4,3.7,2.5,6.6,6.2,6.6c6.2,0,7-7.8,7-10.7
		c0-27.5-22.6-50.1-50.1-50.1s-50.1,22.6-50.1,50.1s22.6,50.1,50.1,50.1c14.8,0,27.9-6.2,37-16.4l10.3,8.6
		c-11.1,13.1-28.3,21.4-46.8,21.4c-35.3,0-63.6-28.3-63.6-63.6c0-34.9,28.3-63.6,63.6-63.6c34.9,0,63.2,28.7,63.2,63.6
		c0,14-6.6,25.5-20.1,25.5c-5.7,0-9.4-2.9-11.5-5.7c-6.6,10.7-18.5,17.7-32,17.7C50.2,141.1,33.4,124.7,33.4,103.8z M71.2,92.7
		c6.2,0,11.1,4.9,11.1,11.1c0,6.2-4.9,11.1-11.1,11.1c-6.2,0-11.1-4.9-11.1-11.1C60.1,97.6,65,92.7,71.2,92.7z"/>
</g>
</svg>
